<svg id="svg" version="1.1" xmlns="http://www.w3.org/2000/svg" xmlns:xlink="http://www.w3.org/1999/xlink" width="400" height="300" viewBox="0, 0, 400,300"><g id="svgg"><path id="path0" d="M178.245 30.206 C 167.429 31.267,163.365 32.147,154.689 35.312 C 131.177 43.887,109.974 68.869,104.942 93.923 C 104.859 94.336,104.580 95.725,104.321 97.010 C 99.238 122.260,105.372 148.747,120.472 166.746 C 130.581 178.796,141.551 185.673,158.890 190.830 C 159.709 191.073,162.457 191.631,166.392 192.352 C 168.658 192.767,173.467 193.261,177.494 193.492 L 181.095 193.698 181.087 220.405 C 181.078 248.901,181.042 249.681,179.546 254.314 C 177.358 261.089,173.010 263.735,163.541 264.051 L 158.590 264.216 158.504 267.142 L 158.418 270.069 221.038 269.993 L 283.659 269.917 290.377 249.680 C 294.071 238.550,297.027 229.266,296.944 229.050 C 296.835 228.767,296.042 228.657,294.097 228.657 C 290.936 228.657,291.545 228.101,288.016 234.209 C 279.830 248.380,273.507 254.464,264.066 257.257 C 256.290 259.557,254.431 259.705,233.308 259.710 C 210.657 259.716,210.742 259.730,208.829 255.512 C 206.939 251.342,206.927 251.125,206.914 221.005 L 206.902 193.698 226.557 193.614 C 239.593 193.557,246.868 193.638,248.162 193.852 C 251.515 194.408,253.971 195.109,255.133 195.843 C 255.748 196.231,256.373 196.549,256.521 196.549 C 257.225 196.549,260.707 200.500,261.572 202.281 C 262.529 204.250,263.781 209.240,264.387 213.503 C 264.884 217.000,264.839 216.954,267.767 216.954 C 269.296 216.954,270.386 216.816,270.608 216.594 C 270.989 216.212,271.163 161.698,270.786 160.715 C 270.638 160.329,270.080 160.240,267.803 160.240 L 265.003 160.240 264.819 161.665 C 263.270 173.669,260.042 179.128,253.131 181.431 C 248.752 182.890,245.706 183.060,225.506 182.975 L 206.902 182.896 206.902 151.988 L 206.902 121.080 233.008 121.080 C 257.050 121.080,259.317 121.123,261.665 121.623 C 270.055 123.407,274.811 129.466,278.316 142.836 L 279.299 146.587 282.376 146.673 L 285.453 146.759 285.253 141.721 C 285.144 138.951,284.926 134.591,284.770 132.033 C 284.614 129.475,284.345 124.546,284.173 121.080 C 284.001 117.614,283.784 113.799,283.690 112.602 L 283.520 110.426 221.055 110.502 L 158.590 110.578 158.504 113.503 L 158.418 116.429 161.505 116.434 C 171.311 116.451,177.054 118.558,179.025 122.862 C 180.935 127.035,181.220 131.883,181.234 160.465 L 181.245 182.446 180.548 182.446 C 179.277 182.446,174.235 181.504,171.493 180.754 C 153.263 175.771,140.965 162.828,135.984 143.384 C 133.443 133.464,132.803 127.491,132.792 113.578 C 132.783 103.255,132.906 101.180,134.017 92.873 C 138.461 59.636,154.613 42.068,182.451 40.192 C 209.370 38.378,228.306 52.470,238.120 81.620 L 239.382 85.371 241.106 85.462 L 242.829 85.553 242.630 81.861 C 242.414 77.835,241.741 66.779,241.264 59.415 C 241.099 56.857,240.761 51.455,240.515 47.412 C 240.269 43.368,239.907 37.798,239.711 35.034 L 239.356 30.008 237.298 30.008 C 235.904 30.008,235.208 30.128,235.142 30.383 C 232.485 40.573,227.801 42.942,218.905 38.596 C 210.941 34.706,206.545 33.157,197.899 31.197 C 193.879 30.285,183.025 29.738,178.245 30.206 " stroke="none" fill="#050505" fill-rule="evenodd"></path><path id="path1" d="M0.000 150.038 L 0.000 300.075 200.000 300.075 L 400.000 300.075 400.000 150.038 L 400.000 0.000 200.000 0.000 L 0.000 0.000 0.000 150.038 M192.736 30.466 C 196.986 30.958,197.435 31.043,202.251 32.275 C 208.480 33.868,211.828 35.139,218.905 38.596 C 227.801 42.942,232.485 40.573,235.142 30.383 C 235.208 30.128,235.904 30.008,237.298 30.008 L 239.356 30.008 239.711 35.034 C 239.907 37.798,240.269 43.368,240.515 47.412 C 240.761 51.455,241.099 56.857,241.264 59.415 C 241.741 66.779,242.414 77.835,242.630 81.861 L 242.829 85.553 241.106 85.462 L 239.382 85.371 238.120 81.620 C 228.306 52.470,209.370 38.378,182.451 40.192 C 154.613 42.068,138.461 59.636,134.017 92.873 C 132.906 101.180,132.783 103.255,132.792 113.578 C 132.825 154.711,147.206 176.946,177.022 181.969 C 178.578 182.231,180.164 182.446,180.548 182.446 L 181.245 182.446 181.234 160.465 C 181.220 131.883,180.935 127.035,179.025 122.862 C 177.054 118.558,171.311 116.451,161.505 116.434 L 158.418 116.429 158.504 113.503 L 158.590 110.578 221.055 110.502 L 283.520 110.426 283.690 112.602 C 283.784 113.799,284.001 117.614,284.173 121.080 C 284.345 124.546,284.614 129.475,284.770 132.033 C 284.926 134.591,285.144 138.951,285.253 141.721 L 285.453 146.759 282.376 146.673 L 279.299 146.587 278.316 142.836 C 274.811 129.466,270.055 123.407,261.665 121.623 C 259.317 121.123,257.050 121.080,233.008 121.080 L 206.902 121.080 206.902 151.988 L 206.902 182.896 225.506 182.975 C 251.457 183.085,254.558 182.587,259.133 177.582 C 262.208 174.217,263.760 169.873,264.819 161.665 L 265.003 160.240 267.803 160.240 C 270.080 160.240,270.638 160.329,270.786 160.715 C 271.163 161.698,270.989 216.212,270.608 216.594 C 270.386 216.816,269.296 216.954,267.767 216.954 C 264.839 216.954,264.884 217.000,264.387 213.503 C 263.781 209.240,262.529 204.250,261.572 202.281 C 260.707 200.500,257.225 196.549,256.521 196.549 C 256.373 196.549,255.748 196.231,255.133 195.843 C 253.971 195.109,251.515 194.408,248.162 193.852 C 246.868 193.638,239.593 193.557,226.557 193.614 L 206.902 193.698 206.914 221.005 C 206.932 263.355,204.452 259.717,233.308 259.710 C 254.431 259.705,256.290 259.557,264.066 257.257 C 273.507 254.464,279.830 248.380,288.016 234.209 C 291.545 228.101,290.936 228.657,294.097 228.657 C 296.042 228.657,296.835 228.767,296.944 229.050 C 297.027 229.266,294.071 238.550,290.377 249.680 L 283.659 269.917 221.038 269.993 L 158.418 270.069 158.504 267.142 L 158.590 264.216 163.541 264.051 C 173.010 263.735,177.358 261.089,179.546 254.314 C 181.042 249.681,181.078 248.901,181.087 220.405 L 181.095 193.698 177.494 193.492 C 173.467 193.261,168.658 192.767,166.392 192.352 C 162.457 191.631,159.709 191.073,158.890 190.830 C 143.926 186.379,136.232 182.148,126.435 172.982 C 107.021 154.818,98.545 125.700,104.321 97.010 C 104.580 95.725,104.859 94.336,104.942 93.923 C 109.974 68.869,131.177 43.887,154.689 35.312 C 163.365 32.147,167.429 31.267,178.245 30.206 C 181.209 29.916,189.221 30.059,192.736 30.466 " stroke="none" fill="#fbfbfb" fill-rule="evenodd"></path></g></svg>